<svg xmlns="http://www.w3.org/2000/svg" viewBox="0 0 730.49 382.12"><defs><style>.cls-1{fill:#00b1eb;}.cls-2{fill:#0f3858;}</style></defs><g id="Capa_2" data-name="Capa 2"><g id="Capa_1-2" data-name="Capa 1"><path class="cls-1" d="M312.45,23.6a22.8,22.8,0,1,0-39.1,15.91V249.73l-2.27,1.72L169.15,181.07V106.79a22.8,22.8,0,1,0-32.46,0V198.1l107.2,74L212.45,296l-111.28-80.8V106.8a22.79,22.79,0,1,0-32.46,0v125l116.75,84.78-32.55,24.76L32.47,249.73V33.28H204.69v96.13a22.8,22.8,0,1,0,32.47,0V.81H0v265L152.91,382.12l152.9-116.29V39.68A22.72,22.72,0,0,0,312.45,23.6Z"/><path class="cls-2" d="M525.94,0V174.42H492.06V58.81L440,143.28H428.77L376.44,58.81V174.42H342.8V0h35.88l55.57,89.7L489.81,0Z"/><path class="cls-2" d="M592,0V174.42H558.33V0Z"/><path class="cls-2" d="M727.26,143v31.39H624.35V0H725V31.4H658V70.77h61.3v31.39H658V143Z"/><polygon class="cls-1" points="366 234.7 344.86 203.52 342.36 203.52 342.36 252.03 344.86 252.03 344.86 208.16 365.44 238.44 366.55 238.44 387.2 208.16 387.2 252.03 389.63 252.03 389.63 203.52 387.2 203.52 366 234.7"/><path class="cls-1" d="M416,203.52,398,252h2.71l5.54-14.83h22.38L434.06,252h2.77l-18.09-48.51ZM407.1,234.7l10.26-27.51,10.25,27.51Z"/><polygon class="cls-1" points="454.44 232.07 437.18 203.52 434.06 203.52 453.19 234.56 453.19 252.03 455.68 252.03 455.68 234.56 474.74 203.52 471.69 203.52 454.44 232.07"/><path class="cls-1" d="M501.43,202.68c-13.65,0-23.91,11.09-23.91,25.09s10.26,25.16,23.91,25.16,23.91-11.16,23.91-25.16S515.08,202.68,501.43,202.68Zm0,47.75c-12.27,0-21.42-10.05-21.42-22.66s9.15-22.66,21.42-22.66,21.42,10,21.42,22.66S513.7,250.43,501.43,250.43Z"/><path class="cls-1" d="M564.36,217.31c0-8.39-6.09-13.79-16.7-13.79H535.05V252h2.49V231.1h10.12a26.87,26.87,0,0,0,3.4-.21L564.16,252h3L553.76,230.4C560.55,228.74,564.36,224,564.36,217.31Zm-16.7,11.36H537.54V206h10.12c9.7,0,14.21,4.78,14.21,11.3S557.36,228.67,547.66,228.67Z"/><rect class="cls-1" x="575.45" y="203.52" width="2.43" height="48.51"/><path class="cls-1" d="M604.56,226.59c-6.58-2-12.4-3.6-12.4-11A10.67,10.67,0,0,1,603,205.11c5.27,0,9.22,2.49,10.74,7.21l2.43-.56c-1.87-5.89-6.73-9.08-13.17-9.08a13.11,13.11,0,0,0-13.31,13c0,9.15,7.56,11.3,14.21,13.31,6.31,1.94,11.85,3,11.85,10.53,0,6.52-5.06,11-12.54,11-7.9,0-12.06-4.71-13.1-8.87l-2.36.77c1.46,5.33,6.79,10.6,15.46,10.6,10.67,0,15.1-7.28,15.1-13.45C618.28,230.13,610.94,228.53,604.56,226.59Z"/><polygon class="cls-1" points="623.35 206.01 636.65 206.01 636.65 252.03 639.08 252.03 639.08 206.01 652.39 206.01 652.39 203.52 623.35 203.52 623.35 206.01"/><path class="cls-1" d="M671.86,203.52,653.78,252h2.7L662,237.2h22.39L689.88,252h2.78l-18.09-48.51Zm-8.94,31.18,10.26-27.51,10.26,27.51Z"/><path class="cls-1" d="M715.18,226.59c-6.58-2-12.4-3.6-12.4-11a10.67,10.67,0,0,1,10.81-10.53c5.27,0,9.21,2.49,10.74,7.21l2.43-.56c-1.88-5.89-6.73-9.08-13.17-9.08a13.11,13.11,0,0,0-13.31,13c0,9.15,7.55,11.3,14.21,13.31,6.31,1.94,11.85,3,11.85,10.53,0,6.52-5.06,11-12.54,11-7.91,0-12.06-4.71-13.1-8.87l-2.36.77c1.46,5.33,6.79,10.6,15.46,10.6,10.67,0,15.1-7.28,15.1-13.45C728.9,230.13,721.56,228.53,715.18,226.59Z"/><path class="cls-1" d="M352.78,269.46H342.43v35.71h10.35c10.2,0,17.6-7.51,17.6-17.86S363,269.46,352.78,269.46Zm0,33.52h-8.1V271.7h8.1c8.75,0,15.36,6.71,15.36,15.61S361.53,303,352.78,303Z"/><polygon class="cls-1" points="379.2 287.83 394.83 287.83 394.83 285.59 379.2 285.59 379.2 271.7 395.99 271.7 395.99 269.46 377.01 269.46 377.01 305.17 396.44 305.17 396.44 302.98 379.2 302.98 379.2 287.83"/><rect class="cls-1" x="416.68" y="269.46" width="2.19" height="35.71"/><polygon class="cls-1" points="451.66 301.14 429.73 269.55 429.66 269.46 427.52 269.46 427.52 305.17 429.76 305.17 429.76 273.54 451.7 305.08 451.76 305.17 453.91 305.17 453.91 269.46 451.66 269.46 451.66 301.14"/><polygon class="cls-1" points="461.04 271.7 470.72 271.7 470.72 305.17 472.91 305.17 472.91 271.7 482.59 271.7 482.59 269.46 461.04 269.46 461.04 271.7"/><polygon class="cls-1" points="491.92 287.83 507.54 287.83 507.54 285.59 491.92 285.59 491.92 271.7 508.7 271.7 508.7 269.46 489.72 269.46 489.72 305.17 509.16 305.17 509.16 302.98 491.92 302.98 491.92 287.83"/><path class="cls-1" d="M531.86,288.34h13.51v.43c-.21,9.14-5.57,14.81-14,14.81-8.61,0-15.36-7.14-15.36-16.27s6.75-16.26,15.36-16.26a15.48,15.48,0,0,1,12.13,5.82l.13.15,1.87-1.25-.15-.18a17.69,17.69,0,0,0-14-6.74c-9.87,0-17.6,8.11-17.6,18.46s7.73,18.52,17.6,18.52c6.64,0,11.63-3.13,14.14-8.84l.32,8.18h1.79v-19H531.86Z"/><path class="cls-1" d="M576.25,279.7c0-6.32-4.74-10.24-12.36-10.24H554.5v35.71h2.24V290h7.15a18.09,18.09,0,0,0,2.35-.14l9.46,15.26.06.1h2.68l-9.78-15.8C573.49,288.08,576.25,284.57,576.25,279.7Zm-19.51-8h7.15c6.42,0,10.11,2.92,10.11,8s-3.69,8.05-10.11,8.05h-7.15Z"/><path class="cls-1" d="M596.35,269.46h-2.27l-13.2,35.42-.11.29h2.42l4-10.79h16L607.14,305l.05.14h2.47L596.4,269.6Zm6,22.68H588L595.19,273Z"/><path class="cls-1" d="M641.9,297.81a15.6,15.6,0,0,1-12.13,5.77c-8.61,0-15.36-7.14-15.36-16.27s6.75-16.26,15.36-16.26a15.51,15.51,0,0,1,12.13,5.82l.12.15,1.88-1.25-.15-.18a17.87,17.87,0,0,0-14-6.74c-9.87,0-17.61,8.11-17.61,18.46s7.74,18.52,17.61,18.52a17.9,17.9,0,0,0,14-6.79l.15-.19L642,297.67Z"/><rect class="cls-1" x="649.92" y="269.46" width="2.19" height="35.71"/><polygon class="cls-1" points="681.42 258.27 678.58 258.27 675.3 265.3 677.02 265.3 681.42 258.27"/><path class="cls-1" d="M676.35,268.85c-9.87,0-17.61,8.11-17.61,18.46s7.74,18.52,17.61,18.52S694,297.7,694,287.31,686.22,268.85,676.35,268.85Zm0,34.73c-8.62,0-15.36-7.14-15.36-16.27s6.74-16.26,15.36-16.26,15.36,7.14,15.36,16.26S685,303.58,676.35,303.58Z"/><polygon class="cls-1" points="724.73 269.46 724.73 301.14 702.79 269.55 702.73 269.46 700.58 269.46 700.58 305.17 702.83 305.17 702.83 273.54 724.76 305.08 724.83 305.17 726.97 305.17 726.97 269.46 724.73 269.46"/><polygon class="cls-1" points="344.36 345.64 363.51 345.64 363.51 343.21 344.36 343.21 344.36 325.88 364.93 325.88 364.93 323.44 341.98 323.44 341.98 366.89 365.48 366.89 365.48 364.52 344.36 364.52 344.36 345.64"/><polygon class="cls-1" points="376.98 323.44 374.54 323.44 374.54 366.89 397.61 366.89 397.61 364.52 376.98 364.52 376.98 323.44"/><polygon class="cls-1" points="408.42 345.64 427.57 345.64 427.57 343.21 408.42 343.21 408.42 325.88 428.99 325.88 428.99 323.44 406.04 323.44 406.04 366.89 429.54 366.89 429.54 364.52 408.42 364.52 408.42 345.64"/><path class="cls-1" d="M472,358.06l-.07.07a19.28,19.28,0,0,1-15,7.13,18.38,18.38,0,0,1-13.57-5.85,21.46,21.46,0,0,1,0-28.49,18.37,18.37,0,0,1,13.57-5.84,19.13,19.13,0,0,1,15,7.18l.07.08,2-1.36-.07-.09a21.75,21.75,0,0,0-17-8.19,20.8,20.8,0,0,0-15.3,6.54,23.83,23.83,0,0,0,0,31.89,20.76,20.76,0,0,0,15.3,6.57,21.75,21.75,0,0,0,17-8.26l.07-.1-1.95-1.23Z"/><polygon class="cls-1" points="479.31 325.88 491.17 325.88 491.17 366.89 493.55 366.89 493.55 325.88 505.4 325.88 505.4 323.44 479.31 323.44 479.31 325.88"/><path class="cls-1" d="M540.8,335.84a11.36,11.36,0,0,0-3.94-9c-2.62-2.2-6.44-3.37-11.05-3.37H514.46v43.45h2.44V348.24h8.91a24.17,24.17,0,0,0,3-.18l11.63,18.78,0,.05h2.91l-12-19.31C537.38,346.07,540.8,341.79,540.8,335.84Zm-2.44,0c0,6.37-4.57,10-12.55,10H516.9v-20h8.91C533.79,325.88,538.36,329.51,538.36,335.84Z"/><path class="cls-1" d="M568.8,322.7a20.8,20.8,0,0,0-15.3,6.54,23.83,23.83,0,0,0,0,31.89,21.09,21.09,0,0,0,30.59,0,23.8,23.8,0,0,0,0-31.89A20.79,20.79,0,0,0,568.8,322.7Zm19,22.47a20.73,20.73,0,0,1-5.42,14.24,18.65,18.65,0,0,1-27.13,0,21.46,21.46,0,0,1,0-28.49,18.67,18.67,0,0,1,27.13,0A20.74,20.74,0,0,1,587.78,345.17Z"/><polygon class="cls-1" points="574.63 309.89 574.74 309.73 571.63 309.73 567.76 318.03 569.54 318.03 574.63 309.89"/><polygon class="cls-1" points="628.24 362.61 601.07 323.49 601.04 323.44 598.65 323.44 598.65 366.89 601.09 366.89 601.09 327.78 628.26 366.85 628.29 366.89 630.68 366.89 630.68 323.44 628.24 323.44 628.24 362.61"/><rect class="cls-1" x="641.59" y="323.44" width="2.37" height="43.45"/><path class="cls-1" d="M688.8,358.13a19.28,19.28,0,0,1-15,7.13,18.38,18.38,0,0,1-13.57-5.85,21.46,21.46,0,0,1,0-28.49,18.37,18.37,0,0,1,13.57-5.84,19.15,19.15,0,0,1,15,7.18l.06.08,2-1.36-.07-.09a21.76,21.76,0,0,0-17-8.19,20.8,20.8,0,0,0-15.3,6.54,23.83,23.83,0,0,0,0,31.89,20.76,20.76,0,0,0,15.3,6.57,21.76,21.76,0,0,0,17-8.26l.07-.1-2-1.28Z"/><path class="cls-1" d="M714.32,323.51l0-.07h-2.56l-16.15,43.31-.05.14h2.64l4.94-13.21h19.8l4.85,13.14,0,.07h2.7ZM722,351.24H704l9-24.11Z"/></g></g></svg>