<svg xmlns="http://www.w3.org/2000/svg" viewBox="0 0 257.61 290.06"><defs><style>.cls-1{fill:#fff;}</style></defs><g id="Capa_2" data-name="Capa 2"><g id="Capa_1-2" data-name="Capa 1"><path d="M3.16,290.06q0-6.65,0-13.3V122.15c0-1.66,0-1.68,1.66-1.64,5.35.14,10.69.31,16,.46l20.23.53c3.63.1,7.25.21,10.88.3l18.21.49,18,.53,11,.29,18,.49,22.72.64,17.17.46,18.13.5c5.93.17,11.87.36,17.8.52l22.08.59,18,.49,18,.51c1.79,0,3.59.13,5.39.15.79,0,1.11.21,1.09,1.09a106.68,106.68,0,0,1-2.08,19,88.73,88.73,0,0,1-8,23,73.68,73.68,0,0,1-16.07,21.19,57.86,57.86,0,0,1-26,14A51,51,0,0,1,193.91,207H98.25v1.11q0,40.37,0,80.73c0,.39,0,.79-.07,1.19ZM160.4,176.68c.16.11.24.18.33.23.59.27,1.17.54,1.76.79a30.35,30.35,0,0,0,19.94,1.68c4.55-1.19,8.15-4.31,8.43-9.54.25-4.63-1-7.87-5.47-10.08a40.94,40.94,0,0,0-9.06-2.78,33.84,33.84,0,0,1-4.54-1.35,1.9,1.9,0,0,1-1.06-2.6,2.15,2.15,0,0,1,1.92-1.51,24.15,24.15,0,0,1,4.25-.1,22.11,22.11,0,0,1,7.62,2.45c.61.29.85.18,1.16-.39.93-1.7,1.93-3.35,2.9-5l1-1.81-.77-.47a25.57,25.57,0,0,0-14.52-3.07,17.22,17.22,0,0,0-8.92,2.66,11,11,0,0,0-3.23,14.4,8.77,8.77,0,0,0,4.81,3.73c2.76.87,5.57,1.58,8.38,2.28,1.64.41,3.33.63,4.75,1.65a2.12,2.12,0,0,1,0,3.59,3.76,3.76,0,0,1-1.47.59,19.76,19.76,0,0,1-10.42-1.36c-1.11-.46-2.19-1-3.33-1.51ZM58.85,144.09H49v.83q0,10.77,0,21.54a13.13,13.13,0,0,0,1.71,6.38c2.89,5.27,11.28,9.87,19.21,6,5.62-2.71,8.63-7,8.57-13.39-.06-6.85,0-13.71,0-20.56v-.84H68.65v21.41a4.9,4.9,0,0,1-9.8,0V144.09Zm33.2,24.22h6.19a12.92,12.92,0,0,0,9.65-4.09,11.49,11.49,0,0,0,1.39-14.89,12.65,12.65,0,0,0-10.71-5.27c-4.94-.05-9.89,0-14.83,0H82.61V179.2h9.44ZM16.66,144.09v35.08h9.43V168.35c.32,0,.58,0,.84,0h5.41a12.9,12.9,0,0,0,7.3-2.18A12.16,12.16,0,0,0,44.75,152a12.69,12.69,0,0,0-11.68-7.93c-5.3-.06-10.6,0-15.89,0C17,144.05,16.86,144.07,16.66,144.09Zm208.59,35.15a2.21,2.21,0,0,0,0-.27q-6.37-17.21-12.72-34.42c-.17-.45-.42-.51-.85-.51-2.28,0-4.57,0-6.85,0a1,1,0,0,0-1.16.78q-6,16.32-12,32.61c-.21.57-.4,1.14-.64,1.82,3.29,0,6.45,0,9.61,0,.18,0,.43-.27.51-.47.51-1.27,1-2.55,1.45-3.84a.68.68,0,0,1,.76-.52c3.22,0,6.45,0,9.67,0a.68.68,0,0,1,.76.53c.45,1.26.91,2.52,1.42,3.76a.91.91,0,0,0,.62.54C218.92,179.26,222.06,179.24,225.25,179.24Zm-110-.07h28.22v-8.69H125V144.09h-9.76Zm31.31-35.09v35.11h9.38V144.05h-8.74Z"/><path d="M56.23,93.24l9.71-11.36Q77.61,68.22,89.28,54.55,99.2,42.94,109.1,31.31q8.54-10,17.08-20c2.5-2.92,5-5.86,7.5-8.75A2,2,0,0,1,135,2c5.13-.22,10.26-.37,15.38-.55L172.88.61c4.35-.16,8.7-.27,13.05-.5a62.23,62.23,0,0,1,11.5.37c1.91.26,3.81.62,5.71.94a3.77,3.77,0,0,1,.68.24c-.93,1.1-1.78,2.12-2.65,3.14L175.34,35.09q-9.54,11.19-19.06,22.39L132.53,85.32C131,87.16,129.4,89,127.8,90.81a1.47,1.47,0,0,1-.94.47c-5,.16-10.1.28-15.15.42l-18.37.51-10.87.31L64.58,93c-2.5.07-5,.18-7.49.27C56.86,93.29,56.64,93.26,56.23,93.24Z"/><path d="M2.78,82.53c-.06-.63-.11-1-.12-1.46C2.42,74.25,2.2,67.43,2,60.61q-.22-6.68-.48-13.36C1.24,40.7,1,34.15.73,27.6Q.53,22.32.36,17.05C.25,13.93.16,10.82,0,7.71c0-.61.12-.82.71-.84,2-.07,4-.18,6-.25L24.87,6c5.26-.18,10.53-.34,15.79-.53q8.61-.3,17.23-.64l10.8-.43a4.69,4.69,0,0,1,.67.06Z"/><path d="M189,89.54l53.53-62.8a4.27,4.27,0,0,0,.31.64,64.82,64.82,0,0,1,10.3,23.25,77.27,77.27,0,0,1,1.61,14.62c.21,6.69.51,13.37.76,20,0,.75,0,1.5,0,2.37Z"/><path class="cls-1" d="M160.4,176.68l4.49-7.55c1.14.52,2.22,1.05,3.33,1.51A19.76,19.76,0,0,0,178.64,172a3.76,3.76,0,0,0,1.47-.59,2.12,2.12,0,0,0,0-3.59c-1.42-1-3.11-1.24-4.75-1.65-2.81-.7-5.62-1.41-8.38-2.28a8.77,8.77,0,0,1-4.81-3.73,11,11,0,0,1,3.23-14.4,17.22,17.22,0,0,1,8.92-2.66,25.57,25.57,0,0,1,14.52,3.07l.77.47-1,1.81c-1,1.68-2,3.33-2.9,5-.31.57-.55.68-1.16.39a22.11,22.11,0,0,0-7.62-2.45,24.15,24.15,0,0,0-4.25.1,2.15,2.15,0,0,0-1.92,1.51,1.9,1.9,0,0,0,1.06,2.6,33.84,33.84,0,0,0,4.54,1.35,40.94,40.94,0,0,1,9.06,2.78c4.47,2.21,5.72,5.45,5.47,10.08-.28,5.23-3.88,8.35-8.43,9.54a30.35,30.35,0,0,1-19.94-1.68c-.59-.25-1.17-.52-1.76-.79C160.64,176.86,160.56,176.79,160.4,176.68Z"/><path class="cls-1" d="M58.85,144.09V165.5a4.9,4.9,0,0,0,9.8,0V144.1h9.83v.84c0,6.85,0,13.71,0,20.56.06,6.36-2.95,10.68-8.57,13.39-7.93,3.82-16.32-.78-19.21-6A13.13,13.13,0,0,1,49,166.46q0-10.77,0-21.54v-.83Z"/><path class="cls-1" d="M92.05,168.31V179.2H82.61V144.05h1.13c4.94,0,9.89,0,14.83,0a12.65,12.65,0,0,1,10.71,5.27,11.49,11.49,0,0,1-1.39,14.89,12.92,12.92,0,0,1-9.65,4.09Zm.29-8.89H97.5a5.78,5.78,0,0,0,.72,0,3.88,3.88,0,0,0,3.49-3.62A3.71,3.71,0,0,0,98.49,152c-2-.15-4.07,0-6.15,0Z"/><path class="cls-1" d="M16.66,144.09c.2,0,.36,0,.52,0,5.29,0,10.59,0,15.89,0A12.69,12.69,0,0,1,44.75,152a12.16,12.16,0,0,1-5.11,14.13,12.9,12.9,0,0,1-7.3,2.18H26.93c-.26,0-.52,0-.84,0v10.82H16.66ZM26.33,152v7.41h.82c1.77,0,3.56.08,5.31-.08a3.75,3.75,0,0,0,3.28-3.55,3.66,3.66,0,0,0-3-3.73C30.61,151.87,28.48,152,26.33,152Z"/><path class="cls-1" d="M225.25,179.24c-3.19,0-6.33,0-9.47,0a.91.91,0,0,1-.62-.54c-.51-1.24-1-2.5-1.42-3.76a.68.68,0,0,0-.76-.53c-3.22,0-6.45,0-9.67,0a.68.68,0,0,0-.76.52c-.46,1.29-.94,2.57-1.45,3.84-.08.2-.33.47-.51.47-3.16,0-6.32,0-9.61,0,.24-.68.43-1.25.64-1.82q6-16.3,12-32.61a1,1,0,0,1,1.16-.78c2.28.05,4.57,0,6.85,0,.43,0,.68.06.85.51q6.34,17.22,12.72,34.42A2.21,2.21,0,0,1,225.25,179.24Zm-17-22-.18,0-2.68,8.85h5.48C210,163.14,209.13,160.21,208.27,157.29Z"/><path class="cls-1" d="M115.23,179.17V144.09H125v26.39h18.46v8.69Z"/><path class="cls-1" d="M146.54,144.08l.64,0h8.74v35.14h-9.38Z"/><path d="M92.34,159.42V152c2.08,0,4.13-.12,6.15,0a3.71,3.71,0,0,1,3.22,3.75,3.88,3.88,0,0,1-3.49,3.62,5.78,5.78,0,0,1-.72,0Z"/><path d="M26.33,152c2.15,0,4.28-.14,6.37.05a3.66,3.66,0,0,1,3,3.73,3.75,3.75,0,0,1-3.28,3.55c-1.75.16-3.54.06-5.31.08h-.82Z"/><path d="M208.27,157.29c.86,2.92,1.73,5.85,2.62,8.83h-5.48l2.68-8.85Z"/></g></g></svg>