<?xml version="1.0" standalone="no"?>
<!DOCTYPE svg PUBLIC "-//W3C//DTD SVG 20010904//EN"
 "http://www.w3.org/TR/2001/REC-SVG-20010904/DTD/svg10.dtd">
<svg version="1.0" xmlns="http://www.w3.org/2000/svg"
 width="580.000000pt" height="580.000000pt" viewBox="0 0 580.000000 580.000000"
 preserveAspectRatio="xMidYMid meet">
<metadata>
Created by potrace 1.14, written by Peter Selinger 2001-2017
</metadata>
<g transform="translate(0.000000,580.000000) scale(0.100000,-0.100000)"
fill="#000000" stroke="none">
<path d="M3907 5793 c-2 -1 -75 -5 -163 -8 -87 -2 -224 -7 -304 -10 -80 -3
-204 -7 -277 -9 -73 -3 -140 -9 -151 -15 -10 -5 -35 -29 -54 -53 -20 -24 -46
-54 -58 -68 -12 -14 -38 -45 -58 -69 -21 -24 -45 -53 -55 -65 -10 -11 -37 -43
-60 -70 -23 -27 -47 -54 -52 -60 -6 -6 -48 -56 -95 -111 -47 -55 -89 -105 -95
-111 -5 -6 -28 -33 -50 -59 -22 -27 -44 -53 -50 -59 -14 -15 -118 -139 -128
-151 -4 -5 -17 -22 -30 -36 -56 -65 -133 -154 -226 -264 -57 -66 -113 -131
-125 -145 -12 -14 -48 -56 -81 -95 -32 -38 -61 -72 -64 -75 -4 -3 -26 -30 -51
-60 -25 -30 -52 -62 -60 -70 -8 -9 -35 -40 -60 -69 -25 -30 -57 -68 -72 -84
-14 -17 -25 -34 -23 -37 2 -3 27 -5 57 -3 29 1 159 5 288 8 129 4 294 8 365
10 72 2 231 7 355 10 124 4 253 8 286 9 l62 2 162 190 c89 104 174 203 189
219 14 17 48 57 76 90 27 33 52 62 55 65 3 3 30 34 60 70 30 36 60 70 65 76 6
6 29 33 51 60 173 205 303 358 347 408 29 32 58 68 67 80 8 11 19 26 25 31 6
6 38 41 71 80 32 38 64 76 71 83 7 7 29 34 50 59 37 46 47 57 89 105 59 65
144 171 141 175 -16 15 -185 31 -325 30 -89 0 -164 -2 -165 -4z"/>
<path d="M1466 5703 c-2 -2 -77 -5 -506 -18 -333 -11 -545 -19 -618 -24 -14
-1 -14 3 4 -431 2 -52 6 -165 9 -250 3 -85 8 -198 10 -250 2 -52 7 -189 10
-305 4 -115 8 -225 9 -243 l1 -33 20 24 c34 42 109 130 125 146 16 17 164 192
190 225 8 10 24 28 36 40 11 11 40 46 65 76 24 30 49 60 55 65 6 6 87 100 180
210 93 110 174 206 181 213 7 7 29 34 50 60 21 26 43 52 49 57 6 6 37 42 69
80 32 39 61 72 64 75 4 3 26 30 51 60 25 30 52 62 60 71 8 8 35 39 59 69 25
29 51 58 58 66 7 7 13 15 13 19 0 5 -238 3 -244 -2z"/>
<path d="M5137 5218 c-20 -24 -46 -55 -59 -70 -13 -14 -32 -37 -42 -50 -33
-40 -180 -213 -186 -218 -3 -3 -41 -48 -85 -100 -44 -52 -82 -97 -85 -100 -3
-3 -29 -34 -59 -70 -30 -36 -62 -72 -70 -81 -9 -9 -34 -38 -56 -64 -22 -27
-69 -83 -105 -125 -36 -42 -84 -99 -107 -126 -23 -27 -53 -62 -68 -79 -14 -16
-44 -51 -67 -78 l-40 -47 183 5 c101 2 272 7 378 10 316 9 586 18 743 24 l27
1 -5 133 c-13 371 -17 439 -28 522 -9 57 -43 200 -56 230 -5 11 -16 38 -26 60
-26 62 -63 137 -85 170 -10 17 -22 38 -25 48 -4 9 -10 17 -15 17 -5 0 -9 7 -9
15 0 25 -16 17 -53 -27z"/>
<path d="M398 3387 c0 -1 -2 -764 -3 -1695 l-1 -1692 950 0 951 0 0 830 0 830
30 0 c16 0 464 1 995 1 1003 1 1038 2 1185 44 55 16 263 110 275 124 3 3 23
18 45 33 75 49 208 173 278 259 41 51 137 196 137 208 0 6 3 11 8 11 4 0 14
15 21 33 8 17 30 64 48 104 89 193 143 426 158 686 l5 87 -32 1 c-18 0 -82 2
-143 4 -278 9 -535 16 -705 20 -356 9 -536 14 -710 20 -96 3 -260 8 -365 10
-104 3 -275 8 -380 11 -104 3 -255 7 -335 9 -208 5 -559 15 -740 20 -85 3
-243 7 -350 10 -107 3 -271 7 -365 10 -762 21 -955 25 -957 22z"/>
</g>
</svg>
