<svg width="460" height="460" viewBox="0 0 460 460" fill="none" xmlns="http://www.w3.org/2000/svg">
<g clip-path="url(#clip0_2_12)">
<path d="M417.307 123.975C417.307 112.265 407.781 102.739 396.071 102.739C384.362 102.739 374.835 112.265 374.835 123.975C374.835 133.042 380.557 140.778 388.571 143.818V223.639C388.571 232.514 385.115 240.858 378.84 247.133L336.599 289.374V271.272C360.05 242.616 374.141 206.018 374.141 166.187C374.141 74.551 299.589 0 207.953 0C116.317 0 41.766 74.551 41.766 166.187C41.766 206.018 55.857 242.617 79.308 271.272V423.583C79.308 443.152 95.225 459.073 114.788 459.073H301.108C320.677 459.073 336.598 443.152 336.598 423.583V310.587L389.445 257.74C398.554 248.632 403.57 236.521 403.57 223.639V143.818C411.585 140.778 417.307 133.042 417.307 123.975V123.975ZM207.953 15C291.318 15 359.14 82.822 359.14 166.187C359.14 249.552 291.318 317.374 207.953 317.374C124.588 317.374 56.766 249.552 56.766 166.187C56.766 82.822 124.589 15 207.953 15V15ZM212.302 421.501C212.302 423.898 210.351 425.849 207.954 425.849C205.557 425.849 203.606 423.899 203.606 421.501C203.606 419.103 205.557 417.153 207.954 417.153C210.351 417.153 212.302 419.104 212.302 421.501ZM301.108 444.073H114.788C103.496 444.073 94.308 434.881 94.308 423.583V287.322C115.754 307.454 142.525 321.967 172.257 328.501V356.072L154.692 373.637C152.347 372.625 149.767 372.059 147.055 372.059C136.387 372.059 127.707 380.738 127.707 391.407C127.707 402.076 136.387 410.755 147.055 410.755C157.723 410.755 166.403 402.076 166.403 391.407C166.403 388.954 165.926 386.614 165.089 384.453L185.061 364.482C186.468 363.076 187.258 361.168 187.258 359.179V331.087C191.608 331.63 196.01 331.999 200.456 332.197V403.667C193.501 406.602 188.606 413.491 188.606 421.501C188.606 432.169 197.286 440.849 207.954 440.849C218.622 440.849 227.302 432.17 227.302 421.501C227.302 413.491 222.409 406.604 215.455 403.668V332.197C219.901 331.998 224.304 331.629 228.653 331.087V378.453C228.653 380.442 229.443 382.35 230.85 383.756L250.818 403.724C249.982 405.885 249.504 408.225 249.504 410.678C249.504 421.347 258.183 430.026 268.852 430.026C279.521 430.026 288.2 421.347 288.2 410.678C288.2 400.01 279.52 391.33 268.852 391.33C266.14 391.33 263.56 391.896 261.215 392.908L243.654 375.347V328.5C273.384 321.966 300.155 307.453 321.599 287.322V423.583C321.599 434.882 312.407 444.073 301.108 444.073V444.073ZM151.403 391.408C151.403 393.805 149.453 395.756 147.055 395.756C144.657 395.756 142.707 393.806 142.707 391.408C142.707 389.01 144.658 387.06 147.055 387.06C149.452 387.06 151.403 389.01 151.403 391.408ZM268.852 406.33C271.249 406.33 273.2 408.28 273.2 410.678C273.2 413.076 271.249 415.026 268.852 415.026C266.455 415.026 264.504 413.075 264.504 410.678C264.504 408.281 266.454 406.33 268.852 406.33ZM396.071 117.739C399.51 117.739 402.307 120.537 402.307 123.975C402.307 127.413 399.51 130.211 396.071 130.211C392.633 130.211 389.835 127.413 389.835 123.975C389.835 120.537 392.632 117.739 396.071 117.739Z" fill="white"/>
<path d="M78.495 188.851C82.609 188.374 85.558 184.652 85.081 180.537C84.532 175.806 84.254 170.978 84.254 166.187C84.254 162.045 80.896 158.687 76.754 158.687C72.612 158.687 69.254 162.045 69.254 166.187C69.254 171.554 69.566 176.963 70.181 182.266C70.624 186.087 73.866 188.902 77.622 188.902C77.91 188.902 78.202 188.885 78.495 188.851V188.851Z" fill="white"/>
<path d="M157.08 295.224C157.986 295.582 158.918 295.752 159.837 295.752C162.824 295.752 165.648 293.955 166.813 291.009C168.336 287.157 166.449 282.8 162.598 281.276C127.414 267.359 100.015 237.431 89.303 201.218C88.128 197.246 83.955 194.979 79.984 196.153C76.012 197.328 73.745 201.5 74.92 205.472C86.929 246.072 117.643 279.624 157.08 295.224Z" fill="white"/>
<path d="M207.953 289.886C201.983 289.886 195.981 289.455 190.116 288.604C186.022 288.01 182.212 290.851 181.617 294.95C181.023 299.049 183.864 302.854 187.963 303.449C194.539 304.403 201.264 304.886 207.952 304.886C212.094 304.886 215.452 301.528 215.452 297.386C215.452 293.244 212.096 289.886 207.953 289.886V289.886Z" fill="white"/>
<path d="M248.134 49.184C298.09 66.39 331.653 113.41 331.653 166.186C331.653 170.328 335.011 173.686 339.153 173.686C343.295 173.686 346.653 170.328 346.653 166.186C346.653 107.01 309.024 54.291 253.019 35.001C249.102 33.651 244.834 35.734 243.485 39.65C242.137 43.567 244.218 47.835 248.134 49.184V49.184Z" fill="white"/>
<path d="M207.953 42.487C214.449 42.487 220.971 42.997 227.337 44.003C227.733 44.066 228.128 44.096 228.517 44.096C232.143 44.096 235.332 41.461 235.916 37.766C236.562 33.674 233.77 29.834 229.678 29.187C222.54 28.059 215.231 27.487 207.953 27.487C203.811 27.487 200.453 30.845 200.453 34.987C200.453 39.129 203.811 42.487 207.953 42.487V42.487Z" fill="white"/>
<path d="M207.953 208.601C231.34 208.601 250.367 189.574 250.367 166.187C250.367 142.8 231.34 123.773 207.953 123.773C184.566 123.773 165.54 142.8 165.54 166.187C165.54 189.574 184.567 208.601 207.953 208.601V208.601ZM207.953 138.773C223.069 138.773 235.367 151.071 235.367 166.187C235.367 181.303 223.069 193.601 207.953 193.601C192.837 193.601 180.539 181.303 180.539 166.187C180.539 151.071 192.838 138.773 207.953 138.773V138.773Z" fill="white"/>
</g>
<defs>
<clipPath id="clip0_2_12">
<rect width="459.073" height="459.073" fill="white"/>
</clipPath>
</defs>
</svg>
