<?xml version="1.0" encoding="UTF-8"?>
<svg width="48px" height="45px" viewBox="0 0 48 45" version="1.1" xmlns="http://www.w3.org/2000/svg" xmlns:xlink="http://www.w3.org/1999/xlink">
    <title>lan</title>
    <defs>
        <filter id="filter-1">
            <feColorMatrix in="SourceGraphic" type="matrix" values="0 0 0 0 0.000000 0 0 0 0 0.694118 0 0 0 0 0.921569 0 0 0 1.000000 0"></feColorMatrix>
        </filter>
    </defs>
    <g id="Website" stroke="none" stroke-width="1" fill="none" fill-rule="evenodd">
        <g id="lan" transform="translate(-575.000000, -959.000000)" filter="url(#filter-1)">
            <g transform="translate(575.000000, 959.000000)">
                <path d="M45.75,31.875 L35.25,31.875 C34.0095,31.875 33,32.8564583 33,34.0625 L33,39.8958333 C33,41.101875 34.0095,42.0833333 35.25,42.0833333 L37.5,42.0833333 L37.5,43.5416667 L36,43.5416667 L36,45 L45,45 L45,43.5416667 L43.5,43.5416667 L43.5,42.0833333 L45.75,42.0833333 C46.9905,42.0833333 48,41.101875 48,39.8958333 L48,34.0625 C48,32.8564583 46.9905,31.875 45.75,31.875 Z M35.25,33.3333333 L45.75,33.3333333 C46.164,33.3333333 46.5,33.66 46.5,34.0625 L46.5,37.7083333 L34.5,37.7083333 L34.5,34.0625 C34.5,33.66 34.836,33.3333333 35.25,33.3333333 Z M42,43.5416667 L39,43.5416667 L39,42.0833333 L42,42.0833333 L42,43.5416667 Z M45.75,40.625 L35.25,40.625 C34.836,40.625 34.5,40.2983333 34.5,39.8958333 L34.5,39.1666667 L46.5,39.1666667 L46.5,39.8958333 C46.5,40.2983333 46.164,40.625 45.75,40.625 Z" id="Shape" fill="#000000" fill-rule="nonzero"></path>
                <path d="M45.75,15.9375 L35.25,15.9375 C34.0095,15.9375 33,16.9189583 33,18.125 L33,23.9583333 C33,25.164375 34.0095,26.1458333 35.25,26.1458333 L37.5,26.1458333 L37.5,27.6041667 L36,27.6041667 L36,29.0625 L45,29.0625 L45,27.6041667 L43.5,27.6041667 L43.5,26.1458333 L45.75,26.1458333 C46.9905,26.1458333 48,25.164375 48,23.9583333 L48,18.125 C48,16.9189583 46.9905,15.9375 45.75,15.9375 Z M35.25,17.3958333 L45.75,17.3958333 C46.164,17.3958333 46.5,17.7225 46.5,18.125 L46.5,21.7708333 L34.5,21.7708333 L34.5,18.125 C34.5,17.7225 34.836,17.3958333 35.25,17.3958333 Z M42,27.6041667 L39,27.6041667 L39,26.1458333 L42,26.1458333 L42,27.6041667 Z M45.75,24.6875 L35.25,24.6875 C34.836,24.6875 34.5,24.3608333 34.5,23.9583333 L34.5,23.2291667 L46.5,23.2291667 L46.5,23.9583333 C46.5,24.3608333 46.164,24.6875 45.75,24.6875 Z" id="Shape" fill="#000000" fill-rule="nonzero"></path>
                <path d="M45.75,0 L35.25,0 C34.0095,0 33,0.981458333 33,2.1875 L33,8.02083333 C33,9.226875 34.0095,10.2083333 35.25,10.2083333 L37.5,10.2083333 L37.5,11.6666667 L36,11.6666667 L36,13.125 L45,13.125 L45,11.6666667 L43.5,11.6666667 L43.5,10.2083333 L45.75,10.2083333 C46.9905,10.2083333 48,9.226875 48,8.02083333 L48,2.1875 C48,0.981458333 46.9905,0 45.75,0 Z M35.25,1.45833333 L45.75,1.45833333 C46.164,1.45833333 46.5,1.785 46.5,2.1875 L46.5,5.83333333 L34.5,5.83333333 L34.5,2.1875 C34.5,1.785 34.836,1.45833333 35.25,1.45833333 Z M42,11.6666667 L39,11.6666667 L39,10.2083333 L42,10.2083333 L42,11.6666667 Z M45.75,8.75 L35.25,8.75 C34.836,8.75 34.5,8.42333333 34.5,8.02083333 L34.5,7.29166667 L46.5,7.29166667 L46.5,8.02083333 C46.5,8.42333333 46.164,8.75 45.75,8.75 Z" id="Shape" fill="#000000" fill-rule="nonzero"></path>
                <polygon id="Path" fill="#000000" fill-rule="nonzero" points="29 21.5625 31 21.5625 31 23.4375 29 23.4375"></polygon>
                <path d="M26.35,6.875 L26.35,18.5416667 C26.35,18.9441667 26.0028,19.2708333 25.575,19.2708333 L17.05,19.2708333 L17.05,14.8958333 L15.5,14.8958333 L15.5,6.14583333 L1.55,6.14583333 L1.55,14.8958333 L0,14.8958333 L0,27.5658333 L5.425,33.3991667 L5.425,44.0625 L11.625,44.0625 L11.625,33.3991667 L17.05,27.5658333 L17.05,26.5625 L25.575,26.5625 C26.0028,26.5625 26.35,26.8891667 26.35,27.2916667 L26.35,36.0416667 C26.35,37.2477083 27.39315,38.2291667 28.675,38.2291667 L31,38.2291667 L31,36.7708333 L28.675,36.7708333 C28.2472,36.7708333 27.9,36.4441667 27.9,36.0416667 L27.9,27.2916667 C27.9,26.085625 26.85685,25.1041667 25.575,25.1041667 L17.05,25.1041667 L17.05,23.6458333 L27.9,23.6458333 L27.9,22.1875 L17.05,22.1875 L17.05,20.7291667 L25.575,20.7291667 C26.85685,20.7291667 27.9,19.7477083 27.9,18.5416667 L27.9,6.875 C27.9,6.4725 28.2472,6.14583333 28.675,6.14583333 L31,6.14583333 L31,4.6875 L28.675,4.6875 C27.39315,4.6875 26.35,5.66895833 26.35,6.875 Z M6.55185,32.3958333 L2.4831,28.0208333 L14.5669,28.0208333 L10.49815,32.3958333 L6.55185,32.3958333 Z M1.55,26.5625 L1.55,19.2708333 L6.2,19.2708333 L6.2,23.6458333 L10.85,23.6458333 L10.85,19.2708333 L15.5,19.2708333 L15.5,26.5625 L1.55,26.5625 Z M15.5,16.3541667 L15.5,17.8125 L10.85,17.8125 L10.85,16.3541667 L15.5,16.3541667 Z M7.75,16.3541667 L9.3,16.3541667 L9.3,22.1875 L7.75,22.1875 L7.75,16.3541667 Z M13.95,9.0625 L12.4,9.0625 L12.4,7.60416667 L13.95,7.60416667 L13.95,9.0625 Z M6.2,9.0625 L6.2,7.60416667 L7.75,7.60416667 L7.75,9.0625 L6.2,9.0625 Z M9.3,7.60416667 L10.85,7.60416667 L10.85,9.0625 L9.3,9.0625 L9.3,7.60416667 Z M4.65,7.60416667 L4.65,9.0625 L3.1,9.0625 L3.1,7.60416667 L4.65,7.60416667 Z M3.1,10.5208333 L13.95,10.5208333 L13.95,14.8958333 L10.85,14.8958333 L6.2,14.8958333 L3.1,14.8958333 L3.1,10.5208333 Z M6.2,16.3541667 L6.2,17.8125 L1.55,17.8125 L1.55,16.3541667 L6.2,16.3541667 Z M6.975,42.6041667 L6.975,33.8541667 L10.075,33.8541667 L10.075,42.6041667 L6.975,42.6041667 Z" id="Shape" fill="#000000" fill-rule="nonzero"></path>
            </g>
        </g>
    </g>
</svg>