<?xml version="1.0" encoding="UTF-8"?>
<svg width="58px" height="45px" viewBox="0 0 58 45" version="1.1" xmlns="http://www.w3.org/2000/svg" xmlns:xlink="http://www.w3.org/1999/xlink">
    <title>network</title>
    <defs>
        <filter id="filter-1">
            <feColorMatrix in="SourceGraphic" type="matrix" values="0 0 0 0 0.000000 0 0 0 0 0.694118 0 0 0 0 0.921569 0 0 0 1.000000 0"></feColorMatrix>
        </filter>
    </defs>
    <g id="Website" stroke="none" stroke-width="1" fill="none" fill-rule="evenodd">
        <g id="network" transform="translate(-1002.000000, -959.000000)" filter="url(#filter-1)">
            <g transform="translate(1002.000000, 959.000000)">
                <path d="M55.665561,0 L43.9522716,0 C43.4839842,0 43.1043345,0.379640935 43.1043345,0.847917515 C43.1043345,1.31619409 43.4839842,1.69583503 43.9522716,1.69583503 L55.665561,1.69583503 C55.9016266,1.69583503 56.0937126,1.88791661 56.0937126,2.12397685 L56.0937126,4.66275494 L53.9323776,4.66275494 C53.4640903,4.66275494 53.0844406,5.04239588 53.0844406,5.51067246 C53.0844406,5.97894903 53.4640903,6.35858997 53.9323776,6.35858997 L56.0937126,6.35858997 L56.0937126,7.97901687 L53.9323776,7.97901687 C53.4640903,7.97901687 53.0844406,8.3586578 53.0844406,8.82693438 C53.0844406,9.29521096 53.4640903,9.6748519 53.9323776,9.6748519 L56.0937126,9.6748519 L56.0937126,11.2952788 L53.9323776,11.2952788 C53.4640903,11.2952788 53.0844406,11.6749197 53.0844406,12.1431963 C53.0844406,12.6114729 53.4640903,12.9911138 53.9323776,12.9911138 L56.0937126,12.9911138 L56.0937126,14.6115407 L53.9323776,14.6115407 C53.4640903,14.6115407 53.0844406,14.9911817 53.0844406,15.4594582 C53.0844406,15.9277348 53.4640903,16.3073758 53.9323776,16.3073758 L56.0937126,16.3073758 L56.0937126,18.8461538 C56.0937126,19.0822141 55.9016266,19.2742957 55.665561,19.2742957 L11.7903584,19.2742957 C11.322071,19.2742957 10.9424213,19.6539366 10.9424213,20.1222132 C10.9424213,20.5904898 11.322071,20.9701307 11.7903584,20.9701307 L27.997488,20.9701307 L27.997488,28.0841586 L26.3719362,28.0841586 C25.9036488,28.0841586 25.5239991,28.4637996 25.5239991,28.9320762 L25.5239991,38.0740967 L20.2624932,38.0740967 C19.1576877,38.0740967 18.2588745,38.9728893 18.2588745,40.0776692 L18.2588745,40.5475286 L9.57769492,40.5475286 L9.57769492,39.4331389 C9.57769492,38.527563 8.84100721,37.7908922 7.93541044,37.7908922 L4.01070553,37.7908922 C3.10510876,37.7908922 2.36842105,38.527563 2.36842105,39.4331389 L2.36842105,43.3577534 C2.36842105,44.2633293 3.10510876,45 4.01070553,45 L7.93541044,45 C8.84100721,45 9.57769492,44.2633293 9.57769492,43.3577534 L9.57769492,42.2433636 L18.2587614,42.2433636 L18.2587614,42.713223 C18.2587614,43.818003 19.1575747,44.7167956 20.2623801,44.7167956 L37.4282439,44.7167956 C38.5330494,44.7167956 39.4318626,43.818003 39.4318626,42.713223 L39.4318626,42.2433636 L48.1326012,42.2433636 L48.1326012,43.3577534 C48.1326012,44.2633293 48.869402,45 49.7748857,45 L53.6995906,45 C54.6051874,45 55.3418751,44.2633293 55.3418751,43.3577534 L55.3418751,39.4331389 C55.3418751,38.527563 54.6051874,37.7908922 53.6995906,37.7908922 L49.7748857,37.7908922 C48.869289,37.7908922 48.1326012,38.527563 48.1326012,39.4331389 L48.1326012,40.5475286 L39.4318626,40.5475286 L39.4318626,40.0776692 C39.4318626,38.9728893 38.5330494,38.0740967 37.4282439,38.0740967 L32.166738,38.0740967 L32.166738,28.9320762 C32.166738,28.4637996 31.7870883,28.0841586 31.3188009,28.0841586 L29.6932491,28.0841586 L29.6932491,20.9701307 L55.6654479,20.9701307 C56.8366186,20.9701307 57.7894737,20.0172975 57.7894737,18.8461538 L57.7894737,2.12397685 C57.7894737,0.952833175 56.8367316,0 55.665561,0 Z M7.88182082,43.304165 L4.06429516,43.304165 L4.06429516,39.4867273 L7.88182082,39.4867273 L7.88182082,43.304165 Z M49.8285884,39.4867273 L53.6461141,39.4867273 L53.6461141,43.304165 L49.8285884,43.304165 L49.8285884,39.4867273 Z M32.0982247,39.7699317 L37.428357,39.7699317 C37.5980574,39.7699317 37.7361016,39.9079727 37.7361016,40.0776692 L37.7361016,42.7131099 C37.7361016,42.8828065 37.5980574,43.0208475 37.428357,43.0208475 L20.2623801,43.0208475 C20.0926797,43.0208475 19.9546355,42.8828065 19.9546355,42.7131099 L19.9546355,40.0776692 C19.9546355,39.9079727 20.0926797,39.7699317 20.2623801,39.7699317 L25.5925124,39.7699317 C26.4897429,39.7699317 27.2197602,39.0399313 27.2197602,38.1426084 L27.2197602,29.7799937 L30.4708639,29.7799937 L30.4708639,38.1426084 C30.4709769,39.0399313 31.2009942,39.7699317 32.0982247,39.7699317 Z" id="Shape" fill="#000000" fill-rule="nonzero"></path>
                <path d="M9.38320255,19.9992566 C9.38320255,19.5338414 9.00191095,19.1565203 8.53159832,19.1565203 L2.13321183,19.1565203 C1.89612522,19.1565203 1.70320847,18.9656124 1.70320847,18.7309946 L1.70320847,2.1109983 C1.70320847,1.87638051 1.89612522,1.68547264 2.13321183,1.68547264 L40.8326063,1.68547264 C41.3029189,1.68547264 41.6842105,1.3081515 41.6842105,0.842736322 C41.6842105,0.377321143 41.3029189,0 40.8326063,0 L2.13321183,0 C0.956976065,0 0,0.947010897 0,2.1109983 L0,18.731107 C0,19.8950944 0.956976065,20.8421053 2.13321183,20.8421053 L8.53171186,20.8421053 C9.00191095,20.8421053 9.38320255,20.4646718 9.38320255,19.9992566 Z" id="Path" fill="#000000" fill-rule="nonzero"></path>
                <path d="M10.6231301,5.21052632 L6.42950147,5.21052632 C5.9526571,5.21052632 5.56607009,5.59450076 5.56607009,6.0681226 L5.56607009,7.97072854 L4.65290506,7.97072854 C4.17606069,7.97072854 3.78947368,8.35470298 3.78947368,8.82832482 L3.78947368,14.7739827 C3.78947368,15.2476045 4.17606069,15.6315789 4.65290506,15.6315789 L12.3997265,15.6315789 C12.8765709,15.6315789 13.2631579,15.2476045 13.2631579,14.7739827 L13.2631579,8.82832482 C13.2631579,8.35470298 12.8765709,7.97072854 12.3997265,7.97072854 L11.4865615,7.97072854 L11.4865615,6.0681226 C11.4865615,5.59450076 11.0999745,5.21052632 10.6231301,5.21052632 L10.6231301,5.21052632 Z M11.5362951,9.6859211 L11.5362951,13.9163864 L5.51633644,13.9163864 L5.51633644,9.6859211 L6.42950147,9.6859211 C6.90634584,9.6859211 7.29293285,9.30194666 7.29293285,8.82832482 L7.29293285,6.92571888 L9.75969873,6.92571888 L9.75969873,8.82832482 C9.75969873,9.30194666 10.1462857,9.6859211 10.6231301,9.6859211 L11.5362951,9.6859211 Z" id="Shape" fill="#000000" fill-rule="nonzero"></path>
                <path d="M22.4652354,5.21052632 L18.2716067,5.21052632 C17.7947624,5.21052632 17.4081754,5.59450076 17.4081754,6.0681226 L17.4081754,7.97072854 L16.4950103,7.97072854 C16.018166,7.97072854 15.6315789,8.35470298 15.6315789,8.82832482 L15.6315789,14.7739827 C15.6315789,15.2476045 16.018166,15.6315789 16.4950103,15.6315789 L24.2418318,15.6315789 C24.7186761,15.6315789 25.1052632,15.2476045 25.1052632,14.7739827 L25.1052632,8.82832482 C25.1052632,8.35470298 24.7186761,7.97072854 24.2418318,7.97072854 L23.3286668,7.97072854 L23.3286668,6.0681226 C23.3286668,5.59450076 22.9420797,5.21052632 22.4652354,5.21052632 L22.4652354,5.21052632 Z M23.3784004,9.6859211 L23.3784004,13.9163864 L17.3584417,13.9163864 L17.3584417,9.6859211 L18.2716067,9.6859211 C18.7484511,9.6859211 19.1350381,9.30194666 19.1350381,8.82832482 L19.1350381,6.92571888 L21.601804,6.92571888 L21.601804,8.82832482 C21.601804,9.30194666 21.988391,9.6859211 22.4652354,9.6859211 L23.3784004,9.6859211 Z" id="Shape" fill="#000000" fill-rule="nonzero"></path>
                <path d="M34.3073406,5.21052632 L30.113712,5.21052632 C29.6368676,5.21052632 29.2502806,5.59450076 29.2502806,6.0681226 L29.2502806,7.97072854 L28.3371156,7.97072854 C27.8602712,7.97072854 27.4736842,8.35470298 27.4736842,8.82832482 L27.4736842,14.7739827 C27.4736842,15.2476045 27.8602712,15.6315789 28.3371156,15.6315789 L36.083937,15.6315789 C36.5607814,15.6315789 36.9473684,15.2476045 36.9473684,14.7739827 L36.9473684,8.82832482 C36.9473684,8.35470298 36.5607814,7.97072854 36.083937,7.97072854 L35.1706569,7.97072854 L35.1706569,6.0681226 C35.170772,5.59450076 34.7843001,5.21052632 34.3073406,5.21052632 L34.3073406,5.21052632 Z M35.2206208,9.6859211 L35.2206208,13.9163864 L29.200547,13.9163864 L29.200547,9.6859211 L30.113712,9.6859211 C30.5905564,9.6859211 30.9771434,9.30194666 30.9771434,8.82832482 L30.9771434,6.92571888 L33.4439093,6.92571888 L33.4439093,8.82832482 C33.4439093,9.30194666 33.8304963,9.6859211 34.3073406,9.6859211 L35.2206208,9.6859211 Z" id="Shape" fill="#000000" fill-rule="nonzero"></path>
                <path d="M45.6757617,5.21052632 L41.482133,5.21052632 C41.0052887,5.21052632 40.6187017,5.59450076 40.6187017,6.0681226 L40.6187017,7.97072854 L39.7055366,7.97072854 C39.2286923,7.97072854 38.8421053,8.35470298 38.8421053,8.82832482 L38.8421053,14.7739827 C38.8421053,15.2476045 39.2286923,15.6315789 39.7055366,15.6315789 L47.4523581,15.6315789 C47.9292025,15.6315789 48.3157895,15.2476045 48.3157895,14.7739827 L48.3157895,8.82832482 C48.3157895,8.35470298 47.9292025,7.97072854 47.4523581,7.97072854 L46.5391931,7.97072854 L46.5391931,6.0681226 C46.5391931,5.59450076 46.1526061,5.21052632 45.6757617,5.21052632 L45.6757617,5.21052632 Z M46.5889267,9.6859211 L46.5889267,13.9163864 L40.568968,13.9163864 L40.568968,9.6859211 L41.482133,9.6859211 C41.9589774,9.6859211 42.3455644,9.30194666 42.3455644,8.82832482 L42.3455644,6.92571888 L44.8123303,6.92571888 L44.8123303,8.82832482 C44.8123303,9.30194666 45.1989173,9.6859211 45.6757617,9.6859211 L46.5889267,9.6859211 Z" id="Shape" fill="#000000" fill-rule="nonzero"></path>
            </g>
        </g>
    </g>
</svg>