<?xml version="1.0" encoding="UTF-8"?>
<svg width="53px" height="45px" viewBox="0 0 53 45" version="1.1" xmlns="http://www.w3.org/2000/svg" xmlns:xlink="http://www.w3.org/1999/xlink">
    <title>security-camera</title>
    <defs>
        <filter id="filter-1">
            <feColorMatrix in="SourceGraphic" type="matrix" values="0 0 0 0 1.000000 0 0 0 0 1.000000 0 0 0 0 1.000000 0 0 0 1.000000 0"></feColorMatrix>
        </filter>
    </defs>
    <g id="Website" stroke="none" stroke-width="1" fill="none" fill-rule="evenodd">
        <g id="security-camera" transform="translate(-149.000000, -950.000000)" filter="url(#filter-1)">
            <g transform="translate(149.000000, 950.000000)">
                <path d="M52.141909,19.1506881 L20.1492333,0.538274241 C18.2366495,-0.570692259 15.7942233,0.0886615709 14.6879195,2.01260259 L11.0046602,8.44103794 L8.55270874,12.7201861 C7.45156093,14.6482398 8.1065313,17.1106489 10.0169889,18.2252546 L20.9859649,24.606571 L19.280099,27.537868 C18.8184504,28.3272391 17.9777468,28.8125791 17.0685027,28.8146273 L10.6642253,28.8146273 L10.6642253,23.8960662 C10.6642253,23.4965888 10.3428623,23.1727484 9.94644094,23.1727484 L6.04989712,23.1727484 L6.04989712,22.2394618 C6.0478629,20.4711974 4.62587475,19.0382471 2.87113768,19.0361972 L0.717784507,19.0361972 C0.527382889,19.0360875 0.344748344,19.1122587 0.210114047,19.2479309 C0.0754797491,19.3836031 0,19.5676456 0,19.759515 L0,44.2766821 C0,44.4685515 0.0754797491,44.652594 0.210114047,44.7882662 C0.344748344,44.9239384 0.527382889,45 0.717784507,45 L2.87113768,45 C4.62587475,44.99795 6.0478629,43.5649997 6.04989712,41.7967353 L6.04989712,39.4990646 L9.94644094,39.4990646 C10.3428623,39.4990646 10.6642253,39.1752242 10.6642253,38.7757468 L10.6642253,35.2211564 L17.0685027,35.2211564 C20.2320277,35.2143708 23.1572917,33.5261568 24.7639717,30.7799851 L26.4919864,27.8106622 L32.5045586,31.3086271 C33.1099262,31.6625824 33.7972393,31.8493508 34.497128,31.8500821 C34.8489336,31.8499319 35.1991972,31.8032406 35.5389408,31.7112051 C36.1918308,31.5361987 36.7896688,31.1963533 37.275979,30.723773 C38.0624233,31.0914548 38.9188015,31.2824133 39.7857634,31.2834143 C40.3170791,31.2830513 40.8460522,31.2124596 41.3591468,31.0734455 C42.6678441,30.7229604 43.8202161,29.936261 44.6285522,28.8414934 L46.0985746,29.6966617 C46.2634522,29.7927356 46.4594749,29.8187955 46.6434366,29.7690972 C46.8273983,29.719399 46.9841973,29.5980225 47.0792731,29.4317207 L52.4031825,20.1397735 C52.4986964,19.9736993 52.5248286,19.7761913 52.47583,19.5907008 C52.4268315,19.4052103 52.3067161,19.2469324 52.141909,19.1506881 Z M4.61432834,41.7967353 C4.61342386,42.7665169 3.8335004,43.5524528 2.87113768,43.5533643 L1.4355689,43.5533643 L1.4355689,20.4828328 L2.87113768,20.4828328 C3.8335004,20.4837443 4.61342386,21.2696802 4.61432834,22.2394618 L4.61432834,41.7967353 L4.61432834,41.7967353 Z M9.22865655,38.052429 L6.04989712,38.052429 L6.04989712,24.619384 L9.22865655,24.619384 L9.22865655,38.052429 Z M23.5252809,30.0479875 C22.1774687,32.3524653 19.7229785,33.7692329 17.0685027,33.7749342 L10.6642253,33.7749342 L10.6642253,30.2616762 L17.0685027,30.2616762 C18.4867992,30.2585609 19.7982205,29.5015598 20.5183796,28.270279 L22.2308081,25.3307154 L25.2504245,27.0873444 L23.5252809,30.0479875 Z M33.2231633,30.0558407 L10.7347733,16.9724682 C9.50988724,16.2581095 9.09005288,14.6793599 9.79632147,13.4435039 L11.8881503,9.79095563 L32.4975858,21.7814983 L38.8161393,25.457606 L36.7239003,29.1118076 L36.7210292,29.1163542 C36.6664534,29.2096847 36.6060373,29.2994198 36.5401475,29.3850151 L36.5401475,29.3879083 C35.7572025,30.4173554 34.3385802,30.7030197 33.2231633,30.0558407 L33.2231633,30.0558407 Z M40.9904107,29.6759955 C40.0502183,29.9321616 39.0534374,29.8793102 38.1451134,29.525132 L40.0618028,26.1800972 L43.381248,28.1111491 C42.7698059,28.8761847 41.9318764,29.4244366 40.9895904,29.6759955 L40.9904107,29.6759955 Z M46.1974238,28.0805631 L41.5556146,25.379901 L40.1549097,24.5652385 L24.3074608,15.3456231 L12.606755,8.53816919 L15.9311221,2.7359204 C16.6402965,1.50189165 18.2069025,1.07920842 19.4330896,1.79106068 L50.8023182,20.0422289 L46.1974238,28.0805631 Z" id="Shape" fill="#000000" fill-rule="nonzero"></path>
                <path d="M43.5936371,23.9968883 C44.0194856,24.2442097 44.50313,24.3746485 44.9956093,24.375 C45.2428347,24.3747889 45.4889676,24.3422017 45.7277271,24.2780697 C47.0237149,23.9310189 47.8940349,22.7169843 47.8064408,21.3784121 C47.7188466,20.0398398 46.6977341,18.9495348 45.3675672,18.774276 C44.0374003,18.5990171 42.7686431,19.3876156 42.3372073,20.657802 C41.9057715,21.9279884 42.4318161,23.3260038 43.5936371,23.9968883 L43.5936371,23.9968883 Z M43.8314083,20.8871808 C44.0101087,20.577438 44.3050912,20.3518404 44.6508621,20.2604763 C44.7653549,20.2298347 44.883354,20.2142447 45.0018774,20.2141002 C45.6133496,20.2141812 46.1485306,20.6248865 46.3067062,21.2154435 C46.4648817,21.8060006 46.20661,22.4291515 45.677012,22.7347521 C45.147414,23.0403528 44.4785474,22.9522004 44.0462436,22.519827 C43.6139397,22.0874537 43.5259955,21.4186737 43.8318261,20.8892698 L43.8314083,20.8871808 Z" id="Shape" fill="#000000" fill-rule="nonzero"></path>
                <path d="M18.4063787,16.5242319 L12.3608912,13.2208597 C12.1324998,13.0941669 11.8498761,13.0929809 11.6203061,13.2177519 C11.3907361,13.3425229 11.2494198,13.5741199 11.25,13.8246269 C11.2505838,14.0751338 11.392975,14.3061406 11.6231225,14.4299554 L17.6702964,17.7329286 C18.0209529,17.9064097 18.4538074,17.7872425 18.6513684,17.4628341 C18.8489293,17.1384258 18.7408385,16.7243091 18.4063787,16.5242319 Z" id="Path" fill="#000000" fill-rule="nonzero"></path>
            </g>
        </g>
    </g>
</svg>