<?xml version="1.0" encoding="UTF-8"?>
<svg width="54px" height="70px" viewBox="0 0 54 70" version="1.1" xmlns="http://www.w3.org/2000/svg" xmlns:xlink="http://www.w3.org/1999/xlink">
    <title>av-cable</title>
    <defs>
        <filter id="filter-1">
            <feColorMatrix in="SourceGraphic" type="matrix" values="0 0 0 0 0.000000 0 0 0 0 0.694118 0 0 0 0 0.921569 0 0 0 1.000000 0"></feColorMatrix>
        </filter>
    </defs>
    <g id="Website" stroke="none" stroke-width="1" fill="none" fill-rule="evenodd">
        <g id="av-cable" transform="translate(-157.000000, -3039.000000)" filter="url(#filter-1)">
            <g transform="translate(157.000000, 3039.000000)">
                <path d="M51.7934375,10.2941016 L51.7934375,5.48734375 C51.7934375,4.73224609 51.1812109,4.12015625 50.42625,4.12015625 L48.0048242,4.12015625 L48.0048242,1.3671875 C48.0048242,0.612089844 47.3925977,0 46.6376367,0 C45.8826758,0 45.2704492,0.612089844 45.2704492,1.3671875 L45.2704492,4.12015625 L42.8490234,4.12015625 C42.0940625,4.12015625 41.4818359,4.73224609 41.4818359,5.48734375 L41.4818359,10.2941016 C40.6136719,10.7686523 40.023457,11.6902734 40.023457,12.7473828 L40.023457,26.7475195 C40.023457,27.8046289 40.6136719,28.72625 41.4818359,29.2008008 L41.4818359,32.9894141 C41.4818359,33.9134961 41.7869922,34.7677148 42.301875,35.4565039 C42.0526367,40.581543 39.7960937,45.144668 36.2392187,48.7744141 C34.0050977,51.0537891 32.2015039,53.6474805 30.8667187,56.4530859 L30.8667187,35.5233594 C31.4127734,34.8232227 31.7392578,33.9439844 31.7392578,32.9894141 L31.7392578,29.2009375 C32.6074219,28.7265234 33.1977734,27.8047656 33.1977734,26.7476563 L33.1977734,12.7473828 C33.1977734,11.6902734 32.6074219,10.7685156 31.7392578,10.2941016 L31.7392578,5.48734375 C31.7392578,4.73224609 31.1270312,4.12015625 30.3720703,4.12015625 L27.9506445,4.12015625 L27.9506445,1.3671875 C27.9506445,0.612089844 27.338418,0 26.583457,0 C25.8284961,0 25.2162695,0.612089844 25.2162695,1.3671875 L25.2162695,4.12015625 L22.7949805,4.12015625 C22.0400195,4.12015625 21.427793,4.73224609 21.427793,5.48734375 L21.427793,10.2941016 C20.5596289,10.7685156 19.9692773,11.6902734 19.9692773,12.7473828 L19.9692773,26.7475195 C19.9692773,27.8046289 20.5596289,28.7263867 21.427793,29.2008008 L21.427793,32.9892773 C21.427793,33.9431641 21.7538672,34.8218555 22.2991016,35.5218555 L22.2991016,56.4508984 C20.9645898,53.6461133 19.161543,51.0529688 16.9282422,48.7744141 C13.3966602,45.1705078 11.144082,40.64375 10.8705078,35.5575391 C11.432832,34.8519336 11.7699805,33.9594336 11.7699805,32.9891406 L11.7699805,29.2005273 C12.6381445,28.7259766 13.2283594,27.8043555 13.2283594,26.7472461 L13.2283594,12.7473828 C13.2283594,11.6902734 12.6381445,10.7686523 11.7699805,10.2941016 L11.7699805,5.48734375 C11.7699805,4.73224609 11.1577539,4.12015625 10.402793,4.12015625 L7.98136719,4.12015625 L7.98136719,1.3671875 C7.98136719,0.612089844 7.36914062,0 6.61417969,0 C5.85921875,0 5.24699219,0.612089844 5.24699219,1.3671875 L5.24699219,4.12015625 L2.82570312,4.12015625 C2.07074219,4.12015625 1.45851562,4.73224609 1.45851562,5.48734375 L1.45851562,10.2941016 C0.590351563,10.7685156 0,11.6902734 0,12.7473828 L0,26.7475195 C0,27.8046289 0.590351563,28.7263867 1.45851562,29.2008008 L1.45851562,32.9892773 C1.45851562,33.9214258 1.76927734,34.782207 2.29236328,35.4740039 C2.53654297,42.5656055 5.39574219,49.2451367 10.3787305,54.3312109 C14.1780078,58.2078711 16.4658594,63.1503906 16.4658594,68.6328125 C16.4658594,69.3879102 17.0780859,70 17.8330469,70 L35.3330469,70 C36.0855469,70 36.696543,69.3920117 36.7002344,68.6395117 C36.7169141,65.270625 37.5543164,61.9799414 39.1220703,59.1230664 C39.485332,58.4610742 39.2432031,57.6299609 38.5812109,57.2666992 C37.9194922,56.9035742 37.0883789,57.1455664 36.7249805,57.8075586 C35.1513477,60.6749609 34.2237109,63.9199805 34.012207,67.265625 L30.9024023,67.265625 C31.2282031,61.0249609 33.7875781,55.1821484 38.1922461,50.6884766 C41.8605469,46.9449805 44.3149219,42.3089844 44.9140234,37.0608984 C45.8951172,37.2275586 47.0387695,37.1899609 48.0268359,37.1035547 C47.6190039,41.1117383 46.277793,44.9605078 44.0969922,48.3408789 C43.6876562,48.9753906 43.8703125,49.821543 44.5046875,50.2308789 C45.1394727,50.6403516 45.9854883,50.4575586 46.3946875,49.8231836 C49.1343945,45.5761523 50.6775391,40.6638477 50.8723633,35.5851562 C51.4476758,34.8754492 51.7934375,33.9721484 51.7934375,32.9894141 L51.7934375,29.2009375 C52.6616016,28.7265234 53.2519531,27.8047656 53.2519531,26.7476562 L53.2519531,12.7473828 C53.2519531,11.6902734 52.6616016,10.7685156 51.7934375,10.2941016 L51.7934375,10.2941016 Z M28.4789258,34.0787891 C28.2332422,34.2749805 27.924668,34.3843555 27.6100781,34.3843555 L25.5568359,34.3843555 C24.7985938,34.3843555 24.162168,33.7525781 24.162168,32.9895508 L24.162168,29.5416406 L29.0048828,29.5416406 L29.0048828,32.9895508 C29.0048828,33.4113281 28.8067773,33.8145117 28.4789258,34.0787891 L28.4789258,34.0787891 Z M22.7632617,26.8071289 C22.7304492,26.8071289 22.7036523,26.7804687 22.7036523,26.7475195 L22.7036523,12.7473828 C22.7036523,12.7145703 22.7303125,12.6877734 22.7632617,12.6877734 L22.7949805,12.6877734 L30.3720703,12.6877734 L30.4037891,12.6877734 C30.4366016,12.6877734 30.4633984,12.7144336 30.4633984,12.7473828 L30.4633984,26.7475195 C30.4633984,26.780332 30.4367383,26.8071289 30.4037891,26.8071289 L22.7632617,26.8071289 Z M24.162168,6.85453125 L29.0048828,6.85453125 L29.0048828,9.95353516 L24.162168,9.95353516 L24.162168,6.85453125 Z M8.49857422,34.0871289 C8.25507813,34.2778516 7.95046875,34.3842188 7.6409375,34.3842188 L5.58769531,34.3842188 C4.83164063,34.3842188 4.19289063,33.7458789 4.19289063,32.9894141 L4.19289063,29.5415039 L9.03574219,29.5415039 L9.03574219,32.9894141 C9.03574219,33.4166602 8.83339844,33.8232617 8.49857422,34.0871289 Z M2.79398438,26.8071289 C2.76117188,26.8071289 2.734375,26.7804687 2.734375,26.7475195 L2.734375,12.7473828 C2.734375,12.7145703 2.76103516,12.6877734 2.79398438,12.6877734 L2.82570313,12.6877734 L10.4029297,12.6877734 L10.4345117,12.6877734 C10.4673242,12.6877734 10.4941211,12.7144336 10.4941211,12.7473828 L10.4941211,26.7475195 C10.4941211,26.780332 10.4674609,26.8071289 10.4345117,26.8071289 L2.79398438,26.8071289 Z M4.19289063,6.85453125 L9.03574219,6.85453125 L9.03574219,9.95353516 L4.19289063,9.95353516 L4.19289063,6.85453125 Z M19.1597656,67.265625 C18.8208398,61.5613086 16.2979688,56.4644336 12.3317578,52.4175586 C8.23347656,48.2345117 5.72400391,42.8585938 5.13980469,37.0953516 C6.12636719,37.2010352 7.27097656,37.2207227 8.25466797,37.0734766 C8.85664062,42.3167773 11.3101953,46.948125 14.9753516,50.6884766 C19.3790625,55.1811914 21.9380273,61.0240039 22.2636914,67.265625 L19.1597656,67.265625 Z M25.0336133,37.0863281 C26.0138867,37.2101953 27.1520703,37.2100586 28.1324805,37.0863281 L28.1324805,67.265625 L25.0336133,67.265625 L25.0336133,37.0863281 Z M49.0590625,32.9894141 C49.0590625,33.7482031 48.4229102,34.3842188 47.6642578,34.3842188 L45.6110156,34.3842188 C44.8540039,34.3842188 44.2162109,33.7508008 44.2162109,32.9894141 L44.2162109,29.5415039 L49.0590625,29.5415039 L49.0590625,32.9894141 Z M42.8174414,26.8071289 C42.7846289,26.8071289 42.757832,26.7804687 42.757832,26.7475195 L42.757832,12.7473828 C42.757832,12.7145703 42.7844922,12.6877734 42.8174414,12.6877734 L42.8490234,12.6877734 L50.42625,12.6877734 L50.4579687,12.6877734 C50.4907812,12.6877734 50.5175781,12.7144336 50.5175781,12.7473828 L50.5175781,26.7475195 C50.5175781,26.780332 50.490918,26.8071289 50.4579687,26.8071289 L42.8174414,26.8071289 Z M44.2162109,6.85453125 L49.0590625,6.85453125 L49.0590625,9.95353516 L44.2162109,9.95353516 L44.2162109,6.85453125 Z" id="Shape" fill="#000000" fill-rule="nonzero"></path>
                <path d="M42.371875,52.6763672 C41.8837891,52.3564453 41.233418,52.3746289 40.7718555,52.7359766 C40.3026367,53.1033398 40.1225781,53.7485156 40.3377734,54.3049609 C40.5473633,54.8471875 41.0971094,55.2093555 41.6799414,55.1792773 C42.2354297,55.1505664 42.7273438,54.7775977 42.906582,54.2525977 C43.1055078,53.6697656 42.8770508,53.0221289 42.371875,52.6763672 L42.371875,52.6763672 Z" id="Path" fill="#000000" fill-rule="nonzero"></path>
            </g>
        </g>
    </g>
</svg>