<?xml version="1.0" encoding="UTF-8"?>
<svg width="70px" height="70px" viewBox="0 0 70 70" version="1.1" xmlns="http://www.w3.org/2000/svg" xmlns:xlink="http://www.w3.org/1999/xlink">
    <title>ethernet</title>
    <defs>
        <filter id="filter-1">
            <feColorMatrix in="SourceGraphic" type="matrix" values="0 0 0 0 0.000000 0 0 0 0 0.694118 0 0 0 0 0.921569 0 0 0 1.000000 0"></feColorMatrix>
        </filter>
    </defs>
    <g id="Website" stroke="none" stroke-width="1" fill="none" fill-rule="evenodd">
        <g id="ethernet" transform="translate(-1013.000000, -2471.000000)" filter="url(#filter-1)">
            <g transform="translate(1013.000000, 2471.000000)">
                <path d="M56.7287369,6.73557278 L53.4608917,3.4677276 C53.0046621,3.01149802 52.2673393,3.01149802 51.8112465,3.4677276 L45.2754194,10.0035547 C45.0561229,10.2217574 44.9336232,10.5192568 44.9336232,10.8283773 C44.9336232,11.1374978 45.0561229,11.4339034 45.2754194,11.6531999 L48.5432646,14.9210451 C48.7707641,15.1485446 49.069494,15.2628413 49.3680872,15.2628413 C49.6666803,15.2628413 49.9654102,15.1485446 50.1929098,14.9210451 L56.7287369,8.385218 C56.9480333,8.1670153 57.0705331,7.86951588 57.0705331,7.56039539 C57.0705331,7.2512749 56.9480333,6.95486923 56.7287369,6.73557278 Z M49.3680872,12.4464405 L47.7498872,10.8282406 L52.6360691,5.94219543 L54.254269,7.56039539 L49.3680872,12.4464405 Z" id="Shape" fill="#000000" fill-rule="nonzero"></path>
                <path d="M59.996582,10.003418 L56.7287369,6.73557278 C56.5105342,6.51627634 56.2130347,6.39377657 55.9039143,6.39377657 C55.5947938,6.39377657 55.2983881,6.51627634 55.0790916,6.73557278 L48.5432646,13.2712631 C48.087035,13.7274927 48.087035,14.4648155 48.5432646,14.9209084 L51.8111097,18.1887535 C52.0293124,18.40805 52.3268119,18.5305497 52.6359324,18.5305497 C52.9450528,18.5305497 53.2414585,18.4068195 53.460755,18.1887535 L59.996582,11.6529265 C60.4528116,11.1969703 60.4528116,10.4596475 59.996582,10.003418 Z M52.6360691,15.7144224 L51.0178691,14.0962225 L55.9039143,9.21017732 L57.5221142,10.8283773 L52.6360691,15.7144224 Z" id="Shape" fill="#000000" fill-rule="nonzero"></path>
                <path d="M63.2645639,13.2712631 L59.9967188,10.003418 C59.5404892,9.54718838 58.8031664,9.54718838 58.3470735,10.003418 L51.8112465,16.539245 C51.59195,16.7574477 51.4694503,17.0549472 51.4694503,17.3640676 C51.4694503,17.6731881 51.59195,17.9695938 51.8112465,18.1888903 L55.0790916,21.4567354 C55.3065912,21.684235 55.6053211,21.7985316 55.9039143,21.7985316 C56.2025074,21.7985316 56.5012373,21.684235 56.7287369,21.4567354 L63.2645639,14.9209084 C63.4838604,14.7027057 63.6063601,14.4052062 63.6063601,14.0960857 C63.6063601,13.7869653 63.4838604,13.4906963 63.2645639,13.2712631 Z M55.9039143,18.9822676 L54.2857143,17.3640676 L59.1717594,12.4780225 L60.7899594,14.0962225 L55.9039143,18.9822676 Z" id="Shape" fill="#000000" fill-rule="nonzero"></path>
                <path d="M66.5324091,16.539245 L63.2645639,13.2712631 C63.0463612,13.0519667 62.7488618,12.9294669 62.4397413,12.9294669 C62.1306208,12.9294669 61.8342152,13.0519667 61.6149187,13.2712631 L55.0790916,19.8070902 C54.6228621,20.2633198 54.6228621,21.0006426 55.0790916,21.4567354 L58.3469368,24.7245806 C58.5651395,24.9438771 58.8626389,25.0663768 59.1717594,25.0663768 C59.4808799,25.0663768 59.7772856,24.9438771 59.996582,24.7245806 L66.5324091,18.1887535 C66.988502,17.7326607 66.988502,16.9953379 66.5324091,16.539245 Z M59.1717594,22.2501128 L57.5535595,20.6319128 L62.4396046,15.7458677 L64.0578046,17.3640676 L59.1717594,22.2501128 Z" id="Shape" fill="#000000" fill-rule="nonzero"></path>
                <path d="M51.009666,23.8904612 L46.1072146,18.9880098 C45.6697155,18.5505106 44.8950686,18.5505106 44.4575694,18.9880098 L33.8372777,29.609532 C32.9622794,30.4845303 32.4804834,31.6477312 32.4804834,32.8855803 C32.4804834,34.1234294 32.9622794,35.2866303 33.8372777,36.1616286 C34.741397,37.0646542 35.9267462,37.5160986 37.113326,37.5160986 C38.2999057,37.5160986 39.4863487,37.0646542 40.3881438,36.1603981 L51.009666,25.5401064 C51.2289624,25.3219037 51.3514622,25.0244042 51.3514622,24.7152838 C51.3514622,24.4061633 51.2289624,24.1097576 51.009666,23.8904612 Z M38.7384986,34.5130771 C37.8424456,35.4102238 36.3840696,35.4102238 35.4869229,34.5130771 C35.0529784,34.0779022 34.8137211,33.5014971 34.8137211,32.886674 C34.8137211,32.271851 35.0528417,31.6954459 35.4869229,31.260271 L45.282392,21.4648018 L48.5339677,24.7174713 L38.7384986,34.5130771 Z" id="Shape" fill="#000000" fill-rule="nonzero"></path>
                <path d="M35.4880166,45.9501251 L17.5141845,27.9761563 C17.0591854,27.5199267 16.3195384,27.5199267 15.8645393,27.9761563 C15.4083097,28.4323859 15.4083097,29.1697087 15.8645393,29.6258015 L33.8372777,47.5997703 C34.0647772,47.8272699 34.3635071,47.9415665 34.6621003,47.9415665 C34.9606934,47.9415665 35.2594233,47.8272699 35.4881533,47.5997703 C35.9442462,47.1436775 35.9442462,46.4063547 35.4880166,45.9501251 Z" id="Path" fill="#000000" fill-rule="nonzero"></path>
                <path d="M42.0226132,52.4859522 L38.7547681,49.218107 C38.2985385,48.7618774 37.5612157,48.7618774 37.1051228,49.218107 C36.6488933,49.6743366 36.6488933,50.4116594 37.1051228,50.8677522 L40.372968,54.1355974 C40.6004676,54.3630969 40.8991975,54.4773936 41.1977906,54.4773936 C41.4963838,54.4773936 41.7951137,54.3630969 42.0226132,54.1355974 C42.4788428,53.6793678 42.4788428,52.942045 42.0226132,52.4859522 Z" id="Path" fill="#000000" fill-rule="nonzero"></path>
                <path d="M21.5986492,54.9359474 L15.0628221,48.4001203 C14.607823,47.9438907 13.868176,47.9438907 13.4131769,48.4001203 L9.74515675,52.0681405 C9.19568516,52.6188425 8.89230685,53.3491927 8.89230685,54.1273943 C8.89230685,54.9055959 9.1944547,55.635946 9.74515675,56.1866481 L13.8133519,60.2548433 C14.3803235,60.8230453 15.1258494,61.1064627 15.8713753,61.1064627 C16.6169011,61.1052322 17.3635208,60.8218148 17.930629,60.2536128 L21.5986492,56.5855926 C21.8179457,56.3673899 21.9404455,56.0698905 21.9404455,55.76077 C21.9405821,55.4516495 21.8180824,55.1552438 21.5986492,54.9359474 Z M16.2820776,58.6062918 C16.0558085,58.8314671 15.689403,58.8314671 15.4642276,58.6062918 L11.3960324,54.5380966 C11.2478296,54.3898938 11.2256812,54.2184488 11.2256812,54.1286247 C11.2256812,54.0388007 11.2478296,53.8661253 11.394802,53.7191529 L14.2379995,50.8759553 L19.1252751,55.7632309 L16.2820776,58.6062918 Z" id="Shape" fill="#000000" fill-rule="nonzero"></path>
                <path d="M15.0629589,58.205023 L11.7951137,54.9371779 C11.3576145,54.4996787 10.5829676,54.4996787 10.1454685,54.9371779 L0.341796207,64.7407134 C0.122499761,64.9589161 4.85721625e-15,65.2564155 4.85721625e-15,65.565536 C4.85721625e-15,65.8746565 0.122499761,66.1710622 0.341796207,66.3903586 L3.60964139,69.6582038 C3.83714094,69.8857033 4.13587083,70 4.434464,70 C4.73305716,70 5.03178705,69.8857033 5.2592866,69.6582038 L15.0629589,59.8545315 C15.5190517,59.3984387 15.5190517,58.6611159 15.0629589,58.205023 Z M4.434464,67.183736 L2.81626403,65.565536 L10.9701544,57.4116457 L12.5883543,59.0298456 L4.434464,67.183736 Z" id="Shape" fill="#000000" fill-rule="nonzero"></path>
                <path d="M68.9824043,18.9880098 L51.0119902,1.01759567 C49.655196,-0.339198556 47.4466456,-0.339198556 46.0909451,1.01759567 L31.3871457,15.7224888 C31.1678493,15.9406915 31.0453495,16.2381909 31.0453495,16.5473114 C31.0453495,16.8564319 31.1678493,17.1528376 31.3871457,17.372134 L39.5574423,25.5412001 C39.9949414,25.9786993 40.7695883,25.9786993 41.2070875,25.5412001 L45.2834858,21.4637081 L48.5361552,24.7163775 L44.4586632,28.7929125 C44.2393667,29.0111152 44.116867,29.3086146 44.116867,29.6177351 C44.116867,29.9268556 44.2393667,30.2232613 44.4586632,30.4425577 L52.6277292,38.6128543 C52.8459319,38.8321507 53.1434314,38.9546505 53.4525519,38.9546505 C53.7616723,38.9546505 54.058078,38.8321507 54.2773745,38.6128543 L68.9822676,23.9091916 C70.3381048,22.5522606 70.3381048,20.3449407 68.9824043,18.9880098 Z M67.3315286,22.2594096 L53.4526886,36.1383864 L46.9332677,29.6177351 L51.009666,25.5413368 C51.2289624,25.3231341 51.3514622,25.0256347 51.3514622,24.7165142 C51.3514622,24.4073937 51.2289624,24.1109881 51.009666,23.8916916 L46.1072146,18.9892403 C45.6697155,18.5517411 44.8950686,18.5517411 44.4575694,18.9892403 L40.3811711,23.0667323 L33.8617503,16.5473114 L47.7405904,2.6673776 C48.1873864,2.22167535 48.9154123,2.22167535 49.362345,2.6673776 L67.3316654,20.6377917 C67.7783247,21.0858182 67.7783247,21.8126136 67.3315286,22.2594096 Z" id="Shape" fill="#000000" fill-rule="nonzero"></path>
                <path d="M55.9108869,38.5976785 L46.1072146,28.7940063 C45.6509851,28.3377767 44.9136623,28.3377767 44.4575694,28.7940063 L38.7384986,34.5130771 C37.8704729,35.3811028 36.356179,35.3811028 35.4869229,34.5130771 C35.0529784,34.0779022 34.8137211,33.5014971 34.8137211,32.886674 C34.8137211,32.271851 35.0528417,31.6954459 35.4869229,31.260271 L41.2059937,25.5412001 C41.6622233,25.0849705 41.6622233,24.3476478 41.2059937,23.8915549 L31.4023215,14.0878826 C30.9473224,13.6316531 30.2076754,13.6316531 29.7526763,14.0878826 L15.8644026,27.9761563 C15.736024,28.104535 15.6392273,28.2608042 15.5820789,28.4323859 L9.86300808,45.5895985 C9.72423882,46.0083672 9.83265658,46.4704756 10.1453317,46.7831508 L23.2168492,59.8546683 C23.4384698,60.0775194 23.7371997,60.1964645 24.0416718,60.1964645 C24.165402,60.1964645 24.290226,60.1766403 24.4104015,60.1369919 L41.5676141,54.4179211 C41.7390591,54.3595423 41.895465,54.263976 42.0238437,54.1355974 L55.9108869,40.2473237 C56.3671165,39.7912309 56.3671165,39.0539081 55.9108869,38.5976785 Z M40.5677919,52.2911283 L24.3568079,57.6951998 L12.3049369,45.6433288 L17.7090084,29.4298839 L30.5774989,16.5613934 L38.7313892,24.7152838 L33.8372777,29.609532 C32.9622794,30.4845303 32.4804834,31.6477312 32.4804834,32.8855803 C32.4804834,34.1234294 32.9622794,35.2866303 33.8372777,36.1616286 C35.5872742,37.9116252 38.6381472,37.9128556 40.3881438,36.1616286 L45.282392,31.2673803 L53.4362824,39.4225011 L40.5677919,52.2911283 Z" id="Shape" fill="#000000" fill-rule="nonzero"></path>
                <path d="M32.2190777,50.8525765 L19.1475603,37.781059 C18.6925611,37.3248294 17.9529142,37.3248294 17.497915,37.781059 C17.0416855,38.2372886 17.0416855,38.9746114 17.497915,39.4307042 L30.5694325,52.5022217 C30.796932,52.7297212 31.0956619,52.8440179 31.3942551,52.8440179 C31.692985,52.8440179 31.9915781,52.7297212 32.2190777,52.5022217 C32.6751706,52.0459921 32.6751706,51.3086693 32.2190777,50.8525765 Z" id="Path" fill="#000000" fill-rule="nonzero"></path>
                <path d="M25.6832506,50.8525765 L19.1474235,44.3167494 C18.6924244,43.8605198 17.9527774,43.8605198 17.4977783,44.3167494 C17.0415487,44.772979 17.0415487,45.5103017 17.4977783,45.9663946 L24.0336054,52.5022217 C24.261105,52.7297212 24.5598348,52.8440179 24.858428,52.8440179 C25.1570212,52.8440179 25.4557511,52.7297212 25.6832506,52.5022217 C26.1394802,52.0459921 26.1394802,51.3086693 25.6832506,50.8525765 Z" id="Path" fill="#000000" fill-rule="nonzero"></path>
            </g>
        </g>
    </g>
</svg>