<?xml version="1.0" encoding="UTF-8"?>
<svg width="50px" height="70px" viewBox="0 0 50 70" version="1.1" xmlns="http://www.w3.org/2000/svg" xmlns:xlink="http://www.w3.org/1999/xlink">
    <title>fingerprint</title>
    <defs>
        <filter id="filter-1">
            <feColorMatrix in="SourceGraphic" type="matrix" values="0 0 0 0 0.000000 0 0 0 0 0.694118 0 0 0 0 0.921569 0 0 0 1.000000 0"></feColorMatrix>
        </filter>
    </defs>
    <g id="Website" stroke="none" stroke-width="1" fill="none" fill-rule="evenodd">
        <g id="fingerprint" transform="translate(-584.000000, -3082.000000)" filter="url(#filter-1)">
            <g transform="translate(584.000000, 3082.000000)">
                <path d="M48.4492022,46.1341482 C49.0156269,46.1341482 49.4747276,45.6750475 49.4747276,45.1087596 L49.4747276,5.05407216 C49.4747276,2.2672026 47.2073883,0 44.4205187,0 L5.05407216,0 C2.2672026,0 3.885773e-15,2.2672026 3.885773e-15,5.05407216 L3.885773e-15,57.2858647 C3.885773e-15,64.2963783 5.70348495,70 12.7141353,70 L36.7605923,70 C43.7711059,70 49.4747276,64.296515 49.4747276,57.2858647 L49.4747276,49.8759963 C49.4747276,49.3097084 49.0157636,48.8506077 48.449339,48.8506077 C47.8829143,48.8506077 47.4239503,49.3097084 47.4239503,49.8759963 L47.4239503,57.2858647 C47.4239503,63.1655798 42.6404441,67.9492228 36.7605923,67.9492228 L12.7139986,67.9492228 C6.83428353,67.9492228 2.05064053,63.1657165 2.05064053,57.2858647 L2.05064053,5.05407216 C2.05077724,3.39800118 3.39800118,2.05077724 5.05407216,2.05077724 L44.4206554,2.05077724 C46.0765897,2.05077724 47.4239503,3.39800118 47.4239503,5.05407216 L47.4239503,45.1088963 C47.4238136,45.6751842 47.8829143,46.1341482 48.4492022,46.1341482 Z" id="Path" fill="#000000" fill-rule="nonzero"></path>
                <path d="M7.79035588,51.271892 C7.79035588,58.2598471 13.4755206,63.9448751 20.4634757,63.9448751 L29.0111152,63.9448751 C35.9990703,63.9448751 41.6840983,58.2597104 41.6840983,51.271892 L41.6840983,24.6731745 C41.6840983,17.6852194 35.9990703,12.0001914 29.0111152,12.0001914 L20.4634757,12.0001914 C13.4755206,12.0001914 7.79035588,17.6853561 7.79035588,24.6731745 L7.79035588,51.271892 Z M9.84113312,24.6731745 C9.84113312,18.8160179 14.6063191,14.0509687 20.4634757,14.0509687 L29.0111152,14.0509687 C34.8682717,14.0509687 39.633321,18.8161547 39.633321,24.6731745 L39.633321,51.271892 C39.633321,57.1290486 34.868135,61.8940979 29.0111152,61.8940979 L20.4634757,61.8940979 C14.6063191,61.8940979 9.84113312,57.1289119 9.84113312,51.271892 L9.84113312,24.6731745 Z" id="Shape" fill="#000000" fill-rule="nonzero"></path>
                <path d="M21.6857389,59.7637505 L27.788852,59.7637505 C33.202357,59.7637505 37.6066062,55.3595013 37.6066062,49.9459962 L37.6066062,30.4971084 C37.6066062,23.4008723 31.8333949,17.6277976 24.7372954,17.6277976 C17.6410593,17.6277976 11.8679846,23.401009 11.8679846,30.4971084 L11.8679846,49.9458595 C11.8679846,55.3595013 16.2722338,59.7637505 21.6857389,59.7637505 Z M35.555829,49.9459962 C35.555829,54.2287027 32.0716952,57.7129732 27.788852,57.7129732 L21.6857389,57.7129732 C17.4030324,57.7129732 13.9187619,54.2287027 13.9187619,49.9459962 L13.9187619,46.4654171 C16.2120777,50.0165429 20.2046676,52.3720657 24.7372954,52.3720657 C29.2699233,52.3720657 33.2625132,50.0164062 35.555829,46.4652803 L35.555829,49.9459962 Z M24.7372954,19.6785748 C30.702733,19.6785748 35.555829,24.5318076 35.555829,30.4971084 L35.555829,39.5026182 C35.555829,45.4680557 30.702733,50.3211517 24.7372954,50.3211517 C18.7728149,50.3211517 13.9202658,45.4694229 13.9187619,39.5052158 L13.9187619,30.4971084 C13.9187619,24.5318076 18.7718579,19.6785748 24.7372954,19.6785748 Z" id="Shape" fill="#000000" fill-rule="nonzero"></path>
                <path d="M30.7016393,31.5539423 L30.7016393,38.445921 C30.7016393,40.9553888 29.1158416,43.2116539 26.7558071,44.0602655 C25.5103017,44.5080185 26.206609,46.4369796 27.4495167,45.9900469 C30.6213855,44.849678 32.7524165,41.8178089 32.7524165,38.4457843 L32.7524165,31.5538056 C32.7524165,30.5623231 32.5731786,29.5940828 32.219898,28.6757448 C32.0164609,28.1473278 31.4236496,27.8833244 30.8946858,28.087035 C30.3661321,28.2903354 30.1025389,28.8836936 30.3058392,29.4122472 C30.5684755,30.0947459 30.7016393,30.8152523 30.7016393,31.5539423 L30.7016393,31.5539423 Z" id="Path" fill="#000000" fill-rule="nonzero"></path>
                <path d="M22.0026523,45.9821172 C23.2441929,46.4328781 23.946379,44.5061045 22.7022408,44.0543866 C20.3519134,43.2014 18.7728149,40.9475958 18.7728149,38.4460577 L18.7728149,31.554079 C18.7728149,28.2653159 21.4483956,25.5897352 24.7371587,25.5897352 C25.7265904,25.5897352 26.706315,25.8367855 27.5702391,26.3040892 C28.068578,26.5736981 28.6903737,26.3880344 28.9599825,25.8901057 C29.2294546,25.3920402 29.0440644,24.7698344 28.5459989,24.5003623 C27.3834817,23.8714573 26.0663358,23.5390947 24.7372954,23.5390947 C20.3177338,23.5390947 16.7221744,27.134654 16.7221744,31.5542157 L16.7221744,38.4461944 C16.7221744,41.8072816 18.8441819,44.8358695 22.0026523,45.9821172 L22.0026523,45.9821172 Z" id="Path" fill="#000000" fill-rule="nonzero"></path>
                <path d="M28.3928742,37.2872319 L28.3928742,32.7126314 C28.3928742,30.6969908 26.752936,29.0570526 24.7372954,29.0570526 C22.7216548,29.0570526 21.0817166,30.6969908 21.0817166,32.7126314 C21.0817166,33.2789194 21.5408173,33.73802 22.1071053,33.73802 C22.6733932,33.73802 23.1324939,33.2789194 23.1324939,32.7126314 C23.1324939,31.8277894 23.8524534,31.1078299 24.7372954,31.1078299 C25.6222742,31.1078299 26.342097,31.8277894 26.342097,32.7126314 L26.342097,37.2872319 C26.342097,38.1720739 25.6221375,38.8920334 24.7372954,38.8920334 C23.8524534,38.8920334 23.1324939,38.1720739 23.1324939,37.2872319 C23.1324939,36.7209439 22.6733932,36.2618432 22.1071053,36.2618432 C21.5408173,36.2618432 21.0817166,36.7209439 21.0817166,37.2872319 C21.0817166,39.3028725 22.7216548,40.9428107 24.7372954,40.9428107 C26.752936,40.9428107 28.3928742,39.3028725 28.3928742,37.2872319 Z" id="Path" fill="#000000" fill-rule="nonzero"></path>
                <path d="M14.97792,10.6671862 C15.5442079,10.6671862 16.0033086,10.2080855 16.0033086,9.64179757 L16.0033086,6.20442148 C16.0033086,5.63813352 15.5442079,5.17903285 14.97792,5.17903285 L8.8157445,5.17903285 C8.24945654,5.17903285 7.79035588,5.63813352 7.79035588,6.20442148 L7.79035588,9.64179757 C7.79035588,10.2080855 8.24945654,10.6671862 8.8157445,10.6671862 L14.97792,10.6671862 Z M9.84113312,7.2298101 L13.9525313,7.2298101 L13.9525313,8.61640895 L9.84113312,8.61640895 L9.84113312,7.2298101 Z" id="Shape" fill="#000000" fill-rule="nonzero"></path>
                <path d="M31.4535909,8.94849815 C32.0200156,8.94849815 32.4789795,8.48939748 32.4789795,7.92310953 C32.4789795,7.35682157 32.0200156,6.8977209 31.4535909,6.8977209 L19.4339855,6.8977209 C18.8676975,6.8977209 18.4085969,7.35682157 18.4085969,7.92310953 C18.4085969,8.48939748 18.8676975,8.94849815 19.4339855,8.94849815 L31.4535909,8.94849815 Z" id="Path" fill="#000000" fill-rule="nonzero"></path>
            </g>
        </g>
    </g>
</svg>