<?xml version="1.0" encoding="UTF-8"?>
<svg width="24px" height="24px" viewBox="0 0 24 24" version="1.1" xmlns="http://www.w3.org/2000/svg" xmlns:xlink="http://www.w3.org/1999/xlink">
    <title>Solid/arrow-right</title>
    <defs>
        <filter id="filter-1">
            <feColorMatrix in="SourceGraphic" type="matrix" values="0 0 0 0 0.000000 0 0 0 0 0.694118 0 0 0 0 0.921569 0 0 0 1.000000 0"></feColorMatrix>
        </filter>
        <path d="M10.1826281,1.8922049 L11.369265,0.705567929 C11.8717149,0.20311804 12.6841871,0.20311804 13.1812918,0.705567929 L23.5723831,11.091314 C24.074833,11.5937639 24.074833,12.4062361 23.5723831,12.9033408 L13.1812918,23.2944321 C12.6788419,23.796882 11.8663697,23.796882 11.369265,23.2944321 L10.1826281,22.1077951 C9.67483296,21.6 9.68552339,20.7714922 10.2040089,20.2743875 L16.6449889,14.1380846 L1.28285078,14.1380846 C0.571937639,14.1380846 0,13.566147 0,12.8552339 L0,11.1447661 C0,10.433853 0.571937639,9.86191537 1.28285078,9.86191537 L16.6449889,9.86191537 L10.2040089,3.72561247 C9.68017817,3.2285078 9.66948775,2.4 10.1826281,1.8922049 Z" id="path-2"></path>
    </defs>
    <g id="Website" stroke="none" stroke-width="1" fill="none" fill-rule="evenodd">
        <g id="Servicios" transform="translate(-896.000000, -1327.000000)">
            <g id="Solid/arrow-right" transform="translate(896.000000, 1327.000000)" filter="url(#filter-1)">
                <g>
                    <mask id="mask-3" fill="white">
                        <use xlink:href="#path-2"></use>
                    </mask>
                    <g id="Mask"></g>
                    <g id="Group" mask="url(#mask-3)" fill="#242A42">
                        <g id="🎨-color">
                            <rect id="Black" x="0" y="0" width="24" height="24"></rect>
                        </g>
                    </g>
                </g>
            </g>
        </g>
    </g>
</svg>